<svg xmlns="http://www.w3.org/2000/svg" viewBox="0 0 24 24" role="img" aria-label="YouTube">
  <rect width="24" height="24" rx="6" fill="#ff0000" />
  <path d="M18.6 8.2a2 2 0 00-1.4-1.4C15.8 6.4 12 6.4 12 6.4s-3.8 0-5.2.4A2 2 0 005.4 8.2 21.6 21.6 0 005 12a21.6 21.6 0 00.4 3.8 2 2 0 001.4 1.4c1.4.4 5.2.4 5.2.4s3.8 0 5.2-.4a2 2 0 001.4-1.4A21.6 21.6 0 0019 12a21.6 21.6 0 00-.4-3.8z" fill="#fff" />
  <path d="M10.6 9.8l3.6 2.2-3.6 2.2z" fill="#ff0000" />
  <path d="M10.6 9.8l3.6 2.2-3.6 2.2z" fill="#fff" />
</svg>
